<?xml version="1.0" standalone="no"?>
<!DOCTYPE svg PUBLIC "-//W3C//DTD SVG 20010904//EN"
 "http://www.w3.org/TR/2001/REC-SVG-20010904/DTD/svg10.dtd">
<svg version="1.0" xmlns="http://www.w3.org/2000/svg"
 width="500.000000pt" height="500.000000pt" viewBox="0 0 500.000000 500.000000"
 preserveAspectRatio="xMidYMid meet">

<g transform="translate(0.000000,500.000000) scale(0.100000,-0.100000)"
fill="#000000" stroke="none">
<path d="M1436 3540 c-16 -5 -42 -22 -58 -37 -46 -43 -180 -226 -342 -465
-143 -211 -148 -218 -181 -218 -66 0 -80 -22 -51 -79 14 -26 12 -31 -76 -167
-159 -243 -501 -778 -522 -815 l-20 -37 23 -50 c26 -55 62 -82 88 -66 8 5 87
122 174 259 413 648 493 766 514 760 11 -3 63 -12 115 -21 52 -8 95 -16 96
-17 1 -1 -4 -36 -12 -77 -40 -229 -37 -425 9 -539 49 -121 127 -208 205 -228
53 -13 186 4 256 32 115 47 292 172 428 303 l47 45 11 -27 c5 -15 10 -30 10
-33 0 -13 64 -131 93 -171 17 -24 57 -60 89 -82 153 -102 377 -63 636 112 46
31 72 44 72 34 0 -8 21 -56 47 -107 73 -148 189 -251 333 -296 77 -25 303 -24
420 1 258 54 568 196 744 341 46 37 73 92 62 122 -10 26 -83 11 -197 -42 -376
-172 -517 -224 -675 -251 -128 -22 -266 -15 -349 16 -108 42 -199 148 -241
283 l-18 57 100 103 c55 56 123 131 151 167 185 238 319 530 330 724 7 111 -7
168 -51 212 -92 92 -267 56 -407 -85 -187 -187 -299 -523 -299 -894 l0 -145
-53 -41 c-129 -99 -274 -170 -383 -187 -64 -10 -145 18 -184 63 -45 51 -77
124 -91 209 l-13 71 59 73 c145 181 290 442 355 637 36 108 50 236 31 282 -17
39 -58 55 -124 48 -68 -9 -118 -44 -185 -132 -133 -176 -257 -507 -287 -770
l-7 -60 -107 -105 c-132 -131 -259 -227 -377 -287 -147 -73 -221 -63 -272 38
-46 92 -51 229 -16 449 22 143 10 130 127 130 137 0 173 11 192 57 8 19 15 40
15 45 0 18 -87 47 -179 59 l-93 13 6 30 c4 17 42 166 86 332 90 339 98 402 55
422 -30 14 -67 14 -109 2z m-149 -567 c-28 -109 -52 -200 -53 -201 -4 -6 -131
10 -144 18 -9 6 22 58 115 194 70 102 128 186 130 186 2 0 -20 -89 -48 -197z
m2301 129 c6 -107 -66 -295 -181 -470 -71 -109 -165 -227 -226 -286 l-41 -40
6 70 c13 177 60 386 105 477 66 131 164 242 251 286 67 33 82 26 86 -37z
m-1074 -103 c-15 -41 -40 -101 -56 -134 -32 -63 -127 -225 -133 -225 -12 0 73
222 107 280 36 61 102 159 105 156 2 -2 -8 -36 -23 -77z"/>
</g>
</svg>
