<?xml version="1.0" standalone="no"?>
<!DOCTYPE svg PUBLIC "-//W3C//DTD SVG 20010904//EN"
 "http://www.w3.org/TR/2001/REC-SVG-20010904/DTD/svg10.dtd">
<svg version="1.0" xmlns="http://www.w3.org/2000/svg"
 width="512.000000pt" height="512.000000pt" viewBox="0 0 512.000000 512.000000"
 preserveAspectRatio="xMidYMid meet">

<g transform="translate(0.000000,512.000000) scale(0.100000,-0.100000)"
fill="#EF2A39" stroke="none">
<path d="M2350 5053 c-24 -10 -2205 -1413 -2208 -1421 -1 -4 507 -177 1129
-384 l1132 -377 68 62 c135 124 280 186 454 195 131 6 228 -14 355 -75 79 -38
107 -59 180 -132 121 -121 187 -254 208 -416 l7 -58 684 -228 c377 -126 686
-227 687 -226 2 2 -571 684 -1272 1517 -993 1180 -1283 1519 -1312 1532 -37
17 -83 22 -112 11z m-85 -899 c92 -22 163 -53 237 -101 83 -54 131 -108 172
-193 28 -58 31 -75 31 -155 0 -80 -3 -97 -31 -155 -41 -85 -89 -139 -172 -193
-127 -83 -254 -119 -422 -119 -270 0 -503 118 -592 300 -31 62 -33 74 -33 167
0 93 2 105 33 167 112 228 466 356 777 282z"/>
<path d="M2005 3869 c-141 -18 -255 -91 -255 -164 0 -27 9 -44 39 -74 130
-130 465 -124 586 10 43 48 44 78 3 124 -71 82 -222 124 -373 104z"/>
<path d="M0 2537 c0 -698 2 -821 15 -872 37 -139 128 -249 257 -310 60 -28
819 -265 849 -265 5 0 9 16 9 34 0 52 45 184 83 245 51 80 141 165 216 204
102 54 171 71 286 71 85 -1 114 -5 194 -33 368 -125 612 -448 639 -848 l7
-106 945 -283 c1057 -318 1079 -324 1147 -324 218 0 417 163 462 378 7 35 11
249 11 637 l0 583 -750 250 -750 250 -37 -71 c-26 -51 -63 -97 -123 -158 -71
-70 -102 -93 -180 -131 -112 -55 -208 -78 -320 -78 -307 0 -581 200 -677 495
-21 66 -26 100 -27 195 -1 63 3 134 7 156 l8 42 -1128 376 c-620 207 -1131
376 -1136 376 -4 0 -7 -366 -7 -813z m1041 263 c124 -24 247 -110 313 -218
112 -185 82 -425 -71 -574 -234 -227 -612 -162 -750 128 -165 348 131 735 508
664z m3275 -1140 c191 -66 315 -238 317 -440 1 -210 -120 -381 -319 -451 -76
-26 -211 -28 -284 -4 -202 67 -330 242 -330 450 0 130 45 239 135 330 126 126
317 171 481 115z"/>
<path d="M885 2496 c-41 -18 -82 -67 -96 -116 -15 -51 0 -107 42 -155 75 -85
222 -66 275 37 23 45 15 134 -16 177 -42 61 -137 87 -205 57z"/>
<path d="M4131 1380 c-76 -18 -131 -86 -131 -164 0 -112 97 -190 204 -166 81
18 130 81 130 165 0 110 -97 188 -203 165z"/>
<path d="M2840 2811 c-149 -48 -259 -176 -283 -331 -30 -198 90 -391 280 -450
201 -62 406 28 496 218 30 62 32 75 32 172 0 97 -2 110 -31 171 -34 72 -113
158 -172 188 -102 52 -223 64 -322 32z"/>
<path d="M1651 1339 c-129 -25 -218 -134 -223 -276 l-3 -66 410 -123 c226 -68
411 -124 412 -124 7 0 -11 103 -28 160 -56 194 -240 374 -435 425 -64 17 -69
17 -133 4z"/>
</g>
</svg>
