<?xml version="1.0" standalone="no"?>
<!DOCTYPE svg PUBLIC "-//W3C//DTD SVG 20010904//EN"
 "http://www.w3.org/TR/2001/REC-SVG-20010904/DTD/svg10.dtd">
<svg version="1.0" xmlns="http://www.w3.org/2000/svg"
 width="512.000000pt" height="512.000000pt" viewBox="0 0 512.000000 512.000000"
 preserveAspectRatio="xMidYMid meet">

<g transform="translate(0.000000,512.000000) scale(0.100000,-0.100000)"
fill="#EF2A39" stroke="none">
<path d="M3283 4900 c-352 -40 -663 -202 -929 -483 -161 -170 -296 -387 -379
-609 -20 -51 -105 -371 -191 -712 -89 -355 -165 -638 -178 -665 -14 -26 -53
-82 -89 -125 -81 -98 -112 -154 -137 -252 -25 -98 -25 -170 0 -268 26 -102 69
-176 149 -257 81 -80 155 -123 257 -149 92 -24 154 -25 248 -5 98 21 179 62
271 140 44 37 101 78 127 91 27 14 299 87 645 173 329 83 634 162 678 176 119
39 367 165 474 242 344 246 572 583 653 967 27 131 29 373 4 521 -35 207 -130
436 -253 608 -71 99 -224 256 -317 325 -186 136 -410 231 -631 267 -114 19
-309 26 -402 15z"/>
<path d="M1050 1525 l-135 -135 -170 0 c-254 0 -343 -25 -429 -121 -58 -63
-89 -140 -94 -230 -13 -218 127 -380 342 -396 l73 -6 6 -73 c17 -223 224 -387
435 -343 117 24 208 89 259 186 44 83 53 141 53 336 l0 172 135 135 c74 74
135 137 135 141 0 3 -19 12 -42 20 -60 19 -181 101 -242 162 -62 62 -129 158
-162 233 -13 30 -25 54 -27 54 -1 0 -63 -61 -137 -135z"/>
</g>
</svg>
