<?xml version="1.0" standalone="no"?>
<!DOCTYPE svg PUBLIC "-//W3C//DTD SVG 20010904//EN"
 "http://www.w3.org/TR/2001/REC-SVG-20010904/DTD/svg10.dtd">
<svg version="1.0" xmlns="http://www.w3.org/2000/svg"
 width="512.000000pt" height="512.000000pt" viewBox="0 0 512.000000 512.000000"
 preserveAspectRatio="xMidYMid meet">

<g transform="translate(0.000000,512.000000) scale(0.100000,-0.100000)"
fill="#EF2A39" stroke="none">
<path d="M2399 5097 c-74 -49 -69 41 -69 -1240 0 -700 4 -1147 9 -1145 5 2
107 41 225 88 l216 85 0 1070 c0 1056 0 1070 -20 1103 -31 50 -71 62 -208 62
-107 0 -122 -2 -153 -23z"/>
<path d="M1740 4803 c-38 -8 -81 -42 -96 -79 -12 -28 -14 -186 -14 -916 l0
-883 58 -24 c31 -14 130 -58 218 -98 89 -40 164 -73 168 -73 3 0 5 450 4 1000
l-3 1000 -31 30 c-17 17 -48 35 -70 40 -40 10 -189 11 -234 3z"/>
<path d="M3840 4483 c-41 -8 -88 -50 -100 -91 -7 -25 -10 -215 -8 -584 l3
-547 165 66 c91 36 190 74 220 83 l55 18 0 491 0 491 -31 30 c-17 17 -48 35
-70 40 -39 10 -188 11 -234 3z"/>
<path d="M1011 4132 c-19 -9 -44 -30 -55 -45 -20 -28 -21 -41 -24 -481 l-3
-453 126 -32 c70 -18 171 -48 226 -66 l99 -34 0 511 c0 577 2 561 -74 598 -58
27 -243 29 -295 2z"/>
<path d="M3111 4132 c-19 -9 -44 -30 -55 -45 -21 -28 -21 -40 -24 -563 -1
-294 1 -534 5 -534 5 0 105 38 223 84 l215 85 3 441 c3 501 4 493 -72 530 -58
27 -243 29 -295 2z"/>
<path d="M3388 2803 l-828 -326 103 -62 c569 -342 1000 -744 1344 -1252 53
-78 98 -141 100 -140 2 2 71 447 153 988 149 972 150 985 134 1027 -21 57 -73
92 -134 91 -35 0 -234 -75 -872 -326z"/>
<path d="M805 2826 c-38 -17 -60 -41 -80 -90 -16 -37 -11 -73 180 -1324 142
-934 201 -1299 215 -1329 14 -30 31 -48 60 -63 39 -20 47 -20 1369 -18 l1330
3 28 21 c58 43 63 65 80 315 l15 232 -56 108 c-375 732 -1181 1421 -2153 1843
-307 132 -844 316 -922 316 -20 -1 -49 -7 -66 -14z"/>
</g>
</svg>
