<?xml version="1.0" standalone="no"?>
<!DOCTYPE svg PUBLIC "-//W3C//DTD SVG 20010904//EN"
 "http://www.w3.org/TR/2001/REC-SVG-20010904/DTD/svg10.dtd">
<svg version="1.0" xmlns="http://www.w3.org/2000/svg"
 width="467.000000pt" height="165.000000pt" viewBox="0 0 467.000000 165.000000"
 preserveAspectRatio="xMidYMid meet">

<g transform="translate(0.000000,165.000000) scale(0.100000,-0.100000)"
fill="#000000" stroke="none">
<path d="M3705 1606 c-161 -32 -305 -153 -305 -256 l0 -30 435 0 435 0 0 23
c-1 37 -36 103 -79 146 -106 106 -303 154 -486 117z"/>
<path d="M3362 1234 c-14 -10 -22 -26 -22 -44 0 -60 -2 -60 497 -60 440 0 454
1 473 20 11 11 20 29 20 40 0 11 -9 29 -20 40 -19 19 -33 20 -473 20 -393 0
-455 -2 -475 -16z"/>
<path d="M3400 1035 c0 -125 193 -196 496 -182 200 9 315 50 354 127 11 22 20
48 20 60 0 20 -4 20 -435 20 l-435 0 0 -25z"/>
<path d="M344 906 c-128 -29 -244 -109 -288 -198 -51 -102 -26 -191 56 -205
l36 -5 -9 40 c-20 89 28 209 104 260 68 46 106 57 194 57 96 0 125 -15 161
-85 42 -83 26 -309 -34 -467 -32 -87 -71 -139 -121 -164 -37 -18 -48 -19 -78
-9 -26 9 -35 17 -35 33 1 12 31 161 69 330 l68 309 -31 -6 c-17 -3 -56 -8 -87
-11 l-56 -7 -48 -226 c-26 -125 -63 -296 -80 -380 l-32 -152 83 0 c61 0 84 4
84 13 1 34 16 38 61 12 52 -29 124 -33 175 -9 43 21 121 105 156 170 56 103
80 199 85 334 5 110 3 132 -16 181 -51 133 -128 188 -273 195 -49 2 -108 -2
-144 -10z"/>
<path d="M2740 909 c-162 -29 -267 -128 -277 -264 -9 -104 8 -134 83 -149 l31
-7 -10 48 c-16 76 7 187 47 230 30 32 91 59 100 44 4 -5 -120 -600 -159 -768
-5 -22 -3 -23 79 -23 l84 0 10 47 c6 27 27 128 48 226 l38 177 87 0 88 0 8 42
9 43 -87 3 -86 3 25 112 c13 62 25 113 27 115 1 2 41 -3 89 -10 81 -11 87 -11
113 8 34 25 59 62 67 94 l5 26 -92 0 c-51 -1 -132 2 -182 6 -49 4 -115 3 -145
-3z"/>
<path d="M2093 846 c-39 -6 -74 -14 -77 -17 -3 -3 -42 -178 -86 -390 -45 -211
-83 -394 -87 -407 -5 -22 -3 -22 80 -22 l86 0 11 58 c44 220 49 237 77 260 20
16 38 22 63 20 32 -3 35 -6 38 -38 2 -19 -1 -65 -8 -101 -20 -118 13 -181 104
-194 63 -10 123 26 140 83 7 20 4 22 -27 22 -52 0 -62 19 -48 87 23 115 8 198
-40 223 -11 6 -38 14 -60 18 l-41 7 113 83 113 82 -58 0 -57 0 -112 -94 c-62
-52 -113 -91 -115 -87 -1 4 16 95 38 201 42 202 45 221 33 219 -5 -1 -40 -7
-80 -13z"/>
<path d="M4543 848 l-62 -10 -11 -51 c-43 -206 -44 -209 -54 -195 -62 83 -235
24 -317 -109 -19 -31 -37 -38 -109 -46 -10 -2 -16 13 -21 52 -13 97 -72 146
-170 138 -30 -3 -73 -14 -95 -25 -38 -20 -110 -89 -131 -126 -9 -17 -100 -48
-114 -40 -4 2 -9 25 -13 51 -15 117 -98 166 -220 132 -139 -38 -246 -216 -246
-407 0 -134 54 -192 180 -192 139 0 236 101 275 286 7 36 15 67 17 68 14 9 78
22 78 16 0 -5 -7 -37 -16 -71 -21 -83 -16 -188 12 -226 43 -57 69 -68 158 -68
73 0 87 3 124 28 77 51 139 162 158 283 6 39 9 42 49 51 l42 10 -14 -46 c-21
-70 -27 -170 -13 -220 34 -127 179 -159 276 -60 l38 39 21 -38 c29 -52 87 -73
147 -52 41 15 71 46 83 88 6 20 3 22 -29 22 -65 0 -65 5 13 375 39 184 71 340
71 345 0 12 -21 11 -107 -2z m-1206 -300 c20 -26 21 -57 2 -74 -23 -21 -25
-71 -3 -96 16 -17 16 -22 -1 -83 -21 -78 -66 -152 -100 -165 -30 -11 -69 1
-79 25 -20 54 3 191 51 298 38 85 102 131 130 95z m520 4 c24 -15 26 -59 4
-81 -25 -25 -27 -53 -4 -91 15 -27 15 -33 -1 -94 -31 -112 -94 -178 -150 -156
-91 34 22 431 123 430 9 0 21 -4 28 -8z m539 -6 c19 -14 18 -17 -14 -178 -19
-94 -41 -174 -51 -188 -47 -65 -113 -65 -132 0 -10 33 -9 55 5 127 36 184 121
290 192 239z"/>
<path d="M1027 618 c-81 -22 -173 -139 -211 -267 -20 -67 -21 -200 -2 -244 22
-52 59 -79 115 -85 71 -6 96 3 151 54 l49 46 7 -26 c3 -14 20 -38 37 -52 27
-23 38 -26 88 -22 41 3 69 12 100 32 l42 28 -6 -31 -6 -31 83 0 84 0 15 68 c9
37 30 137 47 222 28 138 35 158 61 183 39 36 75 36 84 0 14 -59 54 -70 102
-29 39 34 39 98 0 132 -16 13 -39 24 -53 24 -29 0 -94 -31 -113 -54 -22 -26
-30 -18 -24 19 l6 36 -84 -3 -83 -3 -36 -175 c-41 -197 -55 -243 -81 -281 -38
-54 -109 -45 -109 14 0 27 70 379 86 430 5 15 -3 17 -80 17 -76 0 -85 -2 -91
-20 -6 -20 -7 -20 -24 1 -20 26 -95 34 -154 17z m146 -78 c13 -19 11 -38 -17
-173 -18 -84 -37 -161 -43 -172 -31 -56 -101 -78 -129 -40 -31 42 -9 207 41
305 44 87 116 125 148 80z"/>
</g>
</svg>
